<svg width="288" height="26" viewBox="0 0 288 26" fill="none" xmlns="http://www.w3.org/2000/svg">
<path d="M10.176 25.168L0.12 19.336V16.48L10.176 10.672V14.272L3.936 17.896L10.176 21.52V25.168ZM17.5838 25C16.7731 25 16.0264 24.7973 15.3438 24.392C14.6824 23.9867 14.1491 23.4533 13.7438 22.792C13.3384 22.1093 13.1358 21.3627 13.1358 20.552V6.408C13.1358 5.59733 13.3384 4.86133 13.7438 4.2C14.1491 3.51733 14.6824 2.97333 15.3438 2.568C16.0264 2.16267 16.7731 1.96 17.5838 1.96H36.1118V6.216H18.4798C18.1384 6.216 17.8611 6.312 17.6478 6.504C17.4558 6.696 17.3598 6.97333 17.3598 7.336V19.624C17.3598 19.9653 17.4558 20.2427 17.6478 20.456C17.8611 20.648 18.1384 20.744 18.4798 20.744H36.1118V25H17.5838ZM43.7043 25C42.8936 25 42.1576 24.7973 41.4963 24.392C40.8349 23.9867 40.3016 23.4533 39.8963 22.792C39.4909 22.1307 39.2883 21.3947 39.2883 20.584V10.856C39.2883 10.0453 39.4909 9.30933 39.8963 8.648C40.3016 7.98667 40.8349 7.45333 41.4963 7.048C42.1576 6.64267 42.8936 6.44 43.7043 6.44H53.7203C54.5309 6.44 55.2669 6.64267 55.9283 7.048C56.6109 7.45333 57.1443 7.98667 57.5283 8.648C57.9336 9.30933 58.1363 10.0453 58.1363 10.856V20.584C58.1363 21.3947 57.9336 22.1307 57.5283 22.792C57.1443 23.4533 56.6216 23.9867 55.9603 24.392C55.2989 24.7973 54.5523 25 53.7203 25H43.7043ZM43.8643 20.808H53.5603C53.6669 20.808 53.7523 20.776 53.8162 20.712C53.9016 20.6267 53.9443 20.5307 53.9443 20.424V11.016C53.9443 10.9093 53.9016 10.824 53.8162 10.76C53.7523 10.6747 53.6669 10.632 53.5603 10.632H43.8643C43.7576 10.632 43.6616 10.6747 43.5763 10.76C43.5123 10.824 43.4803 10.9093 43.4803 11.016V20.424C43.4803 20.5307 43.5123 20.6267 43.5763 20.712C43.6616 20.776 43.7576 20.808 43.8643 20.808ZM60.7593 25V6.44H75.1912C76.0019 6.44 76.7379 6.64267 77.3993 7.048C78.0819 7.45333 78.6153 7.98667 78.9993 8.648C79.4046 9.30933 79.6073 10.0453 79.6073 10.856V25H75.4153V11.016C75.4153 10.9093 75.3726 10.824 75.2873 10.76C75.2233 10.6747 75.1379 10.632 75.0312 10.632H65.3353C65.2286 10.632 65.1326 10.6747 65.0473 10.76C64.9833 10.824 64.9513 10.9093 64.9513 11.016V25H60.7593ZM83.0405 25V6.44H97.4725C98.2832 6.44 99.0192 6.64267 99.6805 7.048C100.363 7.45333 100.897 7.98667 101.281 8.648C101.686 9.30933 101.889 10.0453 101.889 10.856V25H97.6965V11.016C97.6965 10.9093 97.6538 10.824 97.5685 10.76C97.5045 10.6747 97.4192 10.632 97.3125 10.632H87.6165C87.5098 10.632 87.4138 10.6747 87.3285 10.76C87.2645 10.824 87.2325 10.9093 87.2325 11.016V25H83.0405ZM108.986 25C108.175 25 107.439 24.7973 106.778 24.392C106.116 23.9867 105.583 23.4533 105.178 22.792C104.772 22.1307 104.57 21.3947 104.57 20.584V10.856C104.57 10.0453 104.772 9.30933 105.178 8.648C105.583 7.98667 106.116 7.45333 106.778 7.048C107.439 6.64267 108.175 6.44 108.986 6.44H119.002C119.812 6.44 120.548 6.64267 121.21 7.048C121.892 7.45333 122.426 7.98667 122.81 8.648C123.215 9.30933 123.418 10.0453 123.418 10.856V17.832H108.762V20.424C108.762 20.5307 108.794 20.6267 108.858 20.712C108.943 20.776 109.039 20.808 109.146 20.808H123.418V25H108.986ZM108.762 14.056H119.226V11.016C119.226 10.9093 119.183 10.824 119.097 10.76C119.034 10.6747 118.948 10.632 118.842 10.632H109.146C109.039 10.632 108.943 10.6747 108.858 10.76C108.794 10.824 108.762 10.9093 108.762 11.016V14.056ZM130.392 25C129.581 25 128.845 24.7973 128.184 24.392C127.522 23.9867 126.989 23.4533 126.584 22.792C126.178 22.1307 125.976 21.3947 125.976 20.584V10.856C125.976 10.0453 126.178 9.30933 126.584 8.648C126.989 7.98667 127.522 7.45333 128.184 7.048C128.845 6.64267 129.581 6.44 130.392 6.44H144.792V10.632H130.552C130.445 10.632 130.349 10.6747 130.264 10.76C130.2 10.824 130.168 10.9093 130.168 11.016V20.424C130.168 20.5307 130.2 20.6267 130.264 20.712C130.349 20.776 130.445 20.808 130.552 20.808H144.824V25H130.392ZM151.862 25C151.051 25 150.315 24.7973 149.654 24.392C148.993 23.9867 148.459 23.4533 148.054 22.792C147.649 22.1307 147.446 21.3947 147.446 20.584V0.743999H151.638V6.44H158.87V10.632H151.638V20.424C151.638 20.5307 151.67 20.6267 151.734 20.712C151.819 20.776 151.915 20.808 152.022 20.808H158.87V25H151.862Z" fill="#7C92CC"/>
<path d="M161.637 25V1.96H180.197C181.008 1.96 181.755 2.16267 182.437 2.568C183.12 2.97333 183.664 3.51733 184.069 4.2C184.475 4.86133 184.677 5.59733 184.677 6.408V20.552C184.677 21.3627 184.475 22.1093 184.069 22.792C183.664 23.4533 183.12 23.9867 182.437 24.392C181.755 24.7973 181.008 25 180.197 25H161.637ZM166.213 20.744H180.005C180.112 20.744 180.208 20.712 180.293 20.648C180.379 20.5627 180.421 20.4667 180.421 20.36V6.6C180.421 6.49333 180.379 6.408 180.293 6.344C180.208 6.25867 180.112 6.216 180.005 6.216H166.213C166.107 6.216 166.011 6.25867 165.925 6.344C165.861 6.408 165.829 6.49333 165.829 6.6V20.36C165.829 20.4667 165.861 20.5627 165.925 20.648C166.011 20.712 166.107 20.744 166.213 20.744ZM188.325 25V1.96H209.541V6.216H192.581V11.336H206.213V15.624H192.581V20.744H209.541V25H188.325ZM225.433 25L212.089 1.96H217.017L227.321 19.88L237.657 1.96H242.553L229.209 25H225.433ZM247.39 25C246.579 25 245.843 24.7973 245.182 24.392C244.52 23.9867 243.987 23.4533 243.582 22.792C243.176 22.1307 242.974 21.3947 242.974 20.584V19.88H247.166V20.424C247.166 20.5307 247.198 20.6267 247.262 20.712C247.347 20.776 247.443 20.808 247.55 20.808H257.246C257.352 20.808 257.438 20.776 257.502 20.712C257.587 20.6267 257.63 20.5307 257.63 20.424V18.216C257.63 18.1093 257.587 18.024 257.502 17.96C257.438 17.8747 257.352 17.832 257.246 17.832H247.39C246.579 17.832 245.843 17.6293 245.182 17.224C244.52 16.8187 243.987 16.2853 243.582 15.624C243.176 14.9627 242.974 14.2267 242.974 13.416V10.856C242.974 10.0453 243.176 9.30933 243.582 8.648C243.987 7.98667 244.52 7.45333 245.182 7.048C245.843 6.64267 246.579 6.44 247.39 6.44H257.406C258.238 6.44 258.984 6.64267 259.646 7.048C260.307 7.45333 260.84 7.98667 261.246 8.648C261.651 9.30933 261.854 10.0453 261.854 10.856V11.56H257.63V11.016C257.63 10.9093 257.587 10.824 257.502 10.76C257.438 10.6747 257.352 10.632 257.246 10.632H247.55C247.443 10.632 247.347 10.6747 247.262 10.76C247.198 10.824 247.166 10.9093 247.166 11.016V13.224C247.166 13.3307 247.198 13.4267 247.262 13.512C247.347 13.576 247.443 13.608 247.55 13.608H257.406C258.238 13.608 258.984 13.8107 259.646 14.216C260.307 14.6213 260.84 15.1547 261.246 15.816C261.651 16.4773 261.854 17.2133 261.854 18.024V20.584C261.854 21.3947 261.651 22.1307 261.246 22.792C260.84 23.4533 260.307 23.9867 259.646 24.392C258.984 24.7973 258.238 25 257.406 25H247.39ZM263.519 25V21.64L274.871 7.768L275.831 7.72V11.032L264.479 24.928L263.519 25ZM277.307 25.216V21.568L283.547 17.944L277.307 14.344V10.72L287.387 16.528V19.384L277.307 25.216Z" fill="#8984E0"/>
</svg>
